<svg xmlns="http://www.w3.org/2000/svg" viewBox="0 0 512 512" role="img" aria-label="Flos Fitness Icon">
  <rect width="512" height="512" rx="112" fill="#0f172a"/>
  <circle cx="256" cy="256" r="190" fill="#111827" stroke="#22c55e" stroke-width="18"/>
  <path d="M132 252h52v-42c0-16 13-29 29-29s29 13 29 29v42h28v-42c0-16 13-29 29-29s29 13 29 29v42h52c17 0 30 13 30 30s-13 30-30 30h-52v42c0 16-13 29-29 29s-29-13-29-29v-42h-28v42c0 16-13 29-29 29s-29-13-29-29v-42h-52c-17 0-30-13-30-30s13-30 30-30Z" fill="#22c55e"/>
  <path d="M158 136c33-23 70-34 112-31 32 3 62 14 88 33" fill="none" stroke="#86efac" stroke-width="18" stroke-linecap="round" opacity="0.7"/>
</svg>
